HIERARCHY
ROOT SpineBase
{
  OFFSET 0.000000 0.000000 0.000000
  CHANNELS 6 Xposition Yposition Zposition Zrotation Xrotation Yrotation
  JOINT SpineMid
  {
    OFFSET 0.000000 33.180665 0.000000
    CHANNELS 3 Zrotation Xrotation Yrotation
    JOINT SpineShoulder
    {
      OFFSET -0.238710 24.685945 -0.947406
      CHANNELS 3 Zrotation Xrotation Yrotation
      JOINT Neck
      {
        OFFSET -0.168454 8.174372 -0.648546
        CHANNELS 3 Zrotation Xrotation Yrotation
        JOINT Head
        {
          OFFSET -0.166187 12.322450 2.786426
          CHANNELS 3 Zrotation Xrotation Yrotation
          End Site
          {
            OFFSET 0 0 0
          }
        }
      }
      JOINT ShoulderLeft
      {
        OFFSET -13.797574 -6.857671 -7.914539
        CHANNELS 3 Zrotation Xrotation Yrotation
        JOINT ElbowLeft
        {
          OFFSET -4.837016 -26.140161 0.308521
          CHANNELS 3 Zrotation Xrotation Yrotation
          JOINT WristLeft
          {
            OFFSET -5.756988 -26.081818 5.694105
            CHANNELS 3 Zrotation Xrotation Yrotation
            JOINT HandLeft
            {
              OFFSET -0.256930 -7.044875 1.655210
              CHANNELS 3 Zrotation Xrotation Yrotation
              JOINT HandTipLeft
              {
                OFFSET 0.333567 -6.953101 -0.498423
                CHANNELS 3 Zrotation Xrotation Yrotation
                End Site
                {
                  OFFSET 0 0 0
                }
              }
              JOINT ThumbLeft
              {
                OFFSET 3.327042 1.840058 -0.337937
                CHANNELS 3 Zrotation Xrotation Yrotation
                End Site
                {
                  OFFSET 0 0 0
                }
              }
            }
          }
        }
      }
      JOINT ShoulderRight
      {
        OFFSET 14.686607 -5.590673 -1.533214
        CHANNELS 3 Zrotation Xrotation Yrotation
        JOINT ElbowRight
        {
          OFFSET 8.746864 -24.092237 6.404163
          CHANNELS 3 Zrotation Xrotation Yrotation
          JOINT WristRight
          {
            OFFSET -27.615099 -5.118346 -7.290858
            CHANNELS 3 Zrotation Xrotation Yrotation
            JOINT HandRight
            {
              OFFSET -16.423607 -7.691975 -3.293916
              CHANNELS 3 Zrotation Xrotation Yrotation
              JOINT HandTipRight
              {
                OFFSET -5.115668 -6.506685 1.621269
                CHANNELS 3 Zrotation Xrotation Yrotation
                End Site
                {
                  OFFSET 0 0 0
                }
              }
              JOINT ThumbRight
              {
                OFFSET 4.160261 -5.521026 1.531737
                CHANNELS 3 Zrotation Xrotation Yrotation
                End Site
                {
                  OFFSET 0 0 0
                }
              }
            }
          }
        }
      }
    }
  }
  JOINT HipLeft
  {
    OFFSET -6.944461 1.775605 -4.749137
    CHANNELS 3 Zrotation Xrotation Yrotation
    JOINT KneeLeft
    {
      OFFSET -2.164301 -36.362578 -3.025770
      CHANNELS 3 Zrotation Xrotation Yrotation
      JOINT AnkleLeft
      {
        OFFSET -3.537324 -44.198908 0.265555
        CHANNELS 3 Zrotation Xrotation Yrotation
        JOINT FootLeft
        {
          OFFSET 6.332421 -2.057591 -8.507584
          CHANNELS 3 Zrotation Xrotation Yrotation
          End Site
          {
            OFFSET 0 0 0
          }
        }
      }
    }
  }
  JOINT HipRight
  {
    OFFSET 5.269206 1.127885 -1.455445
    CHANNELS 3 Zrotation Xrotation Yrotation
    JOINT KneeRight
    {
      OFFSET 5.389814 -35.693628 -0.670760
      CHANNELS 3 Zrotation Xrotation Yrotation
      JOINT AnkleRight
      {
        OFFSET 1.936744 -41.233261 1.351995
        CHANNELS 3 Zrotation Xrotation Yrotation
        JOINT FootRight
        {
          OFFSET -1.447838 -7.048986 -5.853589
          CHANNELS 3 Zrotation Xrotation Yrotation
          End Site
          {
            OFFSET 0 0 0
          }
        }
      }
    }
  }
}
MOTION
Frames: 8
Frame Time: 0.033333
59.671348 82.877471 219.968410 -0.000000 0.000000 -15.092091 -0.000000 0.000000 15.092091 -0.000000 0.000000 0.000000 -0.000000 0.000000 0.000000 0.000000 0.000000 0.000000 -0.000000 0.000000 0.000000 -0.000000 0.000000 0.000000 -0.000000 0.000000 0.000000 -0.000000 0.000000 0.000000 0.000000 0.000000 0.000000 0.000000 0.000000 0.000000 -0.000000 0.000000 0.000000 -0.000000 0.000000 0.000000 -0.000000 0.000000 0.000000 -0.000000 0.000000 0.000000 0.000000 0.000000 0.000000 0.000000 0.000000 0.000000 -0.000000 0.000000 15.092091 -0.000000 0.000000 0.000000 -0.000000 0.000000 0.000000 0.000000 0.000000 0.000000 -0.000000 0.000000 15.092091 -0.000000 0.000000 0.000000 -0.000000 0.000000 0.000000 0.000000 0.000000 0.000000
59.732555 82.846073 219.976178 -0.032564 -0.020173 -14.939968 0.026263 0.027887 14.939956 -0.000000 0.000000 0.000000 -0.000000 0.000000 0.000000 0.000000 0.000000 0.000000 -0.000000 0.000000 0.000000 -0.000000 0.000000 0.000000 3.876407 -0.572302 0.951394 -2.950690 1.513202 -0.949546 0.000000 0.000000 0.000000 0.000000 0.000000 0.000000 -0.000000 0.000000 0.000000 -0.000000 0.000000 0.000000 -0.000000 0.000000 0.000000 -1.516492 0.669689 -0.887589 0.000000 0.000000 0.000000 0.000000 0.000000 0.000000 0.026263 0.027887 14.939956 -0.000000 0.000000 0.000000 -3.534826 -3.912328 3.212242 0.000000 0.000000 0.000000 0.026263 0.027887 14.939956 -0.000000 0.000000 0.000000 2.973059 7.835373 -4.073216 0.000000 0.000000 0.000000
59.793905 82.817996 219.985858 -0.056517 -0.042745 -14.804470 0.043718 0.055768 14.804428 -0.000000 0.000000 0.000000 -0.000000 0.000000 0.000000 0.000000 0.000000 0.000000 0.419815 -0.898846 0.174677 -1.124486 -0.257563 -0.062219 7.836579 0.083450 1.530247 -5.726766 2.655822 -1.711923 0.000000 0.000000 0.000000 0.000000 0.000000 0.000000 -1.276061 -0.081673 -0.371205 1.275506 0.089918 0.369295 0.566859 -0.516701 0.873958 -3.369012 1.810418 -2.466583 0.000000 0.000000 0.000000 0.000000 0.000000 0.000000 0.043718 0.055768 14.804428 -0.000000 0.000000 0.000000 -6.666322 -7.681778 6.381262 0.000000 0.000000 0.000000 0.043718 0.055768 14.804428 -0.000000 0.000000 0.000000 5.536314 13.621108 -7.401904 0.000000 0.000000 0.000000
59.855398 82.793239 219.997451 -0.071875 -0.067718 -14.685736 0.052360 0.083727 14.685655 -0.000000 0.000000 0.000000 -0.000000 0.000000 0.000000 0.000000 0.000000 0.000000 0.577326 -1.316959 0.257357 -1.408921 -0.268717 -0.067260 10.389233 0.089221 1.983291 -8.184634 3.360276 -2.225659 0.000000 0.000000 0.000000 0.000000 0.000000 0.000000 -1.765816 -0.102718 -0.511034 1.764834 0.118413 0.507627 0.792479 -0.755649 1.302165 -4.635619 2.547911 -3.428386 0.000000 0.000000 0.000000 0.000000 0.000000 0.000000 0.052360 0.083727 14.685655 0.451503 0.803156 -0.064754 -9.725304 -11.862981 9.395877 0.000000 0.000000 0.000000 0.052360 0.083727 14.685655 -0.000000 0.000000 0.000000 7.457862 17.632220 -9.847113 0.000000 0.000000 0.000000
59.917035 82.771802 220.010956 -0.078654 -0.095095 -14.583880 0.052175 0.111836 14.583763 -0.000000 0.000000 0.000000 -0.000000 0.000000 0.000000 0.000000 0.000000 0.000000 0.700260 -1.714339 0.336310 -1.517109 -0.217871 -0.055764 11.802186 0.080710 2.197265 -10.191821 3.572392 -2.455994 0.000000 0.000000 0.000000 0.000000 0.000000 0.000000 -2.153350 -0.111348 -0.619044 2.152027 0.134523 0.614425 0.976639 -0.980512 1.721228 -5.580913 3.125168 -4.191955 0.000000 0.000000 0.000000 0.000000 0.000000 0.000000 0.052175 0.111836 14.583763 0.510676 0.940481 -0.076424 -11.771801 -14.766940 12.341896 0.000000 0.000000 0.000000 0.052175 0.111836 14.583763 -0.000000 0.000000 0.000000 8.625121 20.198089 -11.360602 0.000000 0.000000 0.000000
59.978816 82.753686 220.026373 -0.076863 -0.124880 -14.498986 0.043150 0.140146 14.498849 -0.000000 0.000000 0.000000 -0.000000 0.000000 0.000000 0.000000 0.000000 0.000000 0.788924 -2.091128 0.411132 -1.448188 -0.112333 -0.028116 11.954023 0.068020 2.155010 -11.624554 3.256507 -2.397376 0.000000 0.000000 0.000000 0.000000 0.000000 0.000000 -2.436615 -0.108014 -0.694487 2.435133 0.137433 0.689269 1.117552 -1.190571 2.128744 -6.183137 3.513813 -4.750780 0.000000 0.000000 0.000000 0.000000 0.000000 0.000000 0.043150 0.140146 14.498849 0.522629 1.010159 -0.082349 -13.120244 -16.831715 15.205065 0.000000 0.000000 0.000000 0.043150 0.140146 14.498849 -0.000000 0.000000 0.000000 8.991432 21.562459 -11.935460 0.000000 0.000000 0.000000
60.047483 82.733947 220.044837 -0.063484 -0.153454 -14.437390 0.023220 0.164436 14.437272 -0.000000 0.000000 0.000000 -0.981076 -0.192282 0.217720 0.000000 0.000000 0.000000 0.990393 -2.632432 0.522331 -1.471711 0.254497 -0.044906 11.566678 0.603794 1.952216 -12.637463 1.857703 -2.307011 0.000000 0.000000 0.000000 0.000000 0.000000 0.000000 -2.645482 -0.059828 -0.732474 2.644504 0.093567 0.728933 1.335630 -1.384778 2.475064 -6.528810 3.613536 -4.989754 0.000000 0.000000 0.000000 0.000000 0.000000 0.000000 0.023220 0.164436 14.437272 0.426581 0.931168 -0.075454 -13.913682 -18.194060 22.145967 0.000000 0.000000 0.000000 0.023220 0.164436 14.437272 -0.000000 0.000000 0.000000 7.330206 21.011338 -10.333851 0.000000 0.000000 0.000000
60.110412 82.721876 220.063856 -0.043187 -0.186726 -14.407879 -0.004633 0.191599 14.407816 -0.000000 0.000000 0.000000 -1.130046 -0.288237 0.248985 0.000000 0.000000 0.000000 1.059008 -3.013515 0.598943 -0.826044 0.554839 0.041256 8.123909 0.614788 1.214302 -12.166512 -0.243450 -1.659276 0.000000 0.000000 0.000000 0.000000 0.000000 0.000000 -2.524822 -0.017008 -0.683234 2.524440 0.047088 0.681822 1.492652 -1.569152 2.826449 -6.780734 3.149368 -4.824503 0.000000 0.000000 0.000000 0.000000 0.000000 0.000000 -0.004633 0.191599 14.407816 0.292547 0.824928 -0.066386 -13.226022 -16.961007 25.337303 0.000000 0.000000 0.000000 -0.004633 0.191599 14.407816 -0.000000 0.000000 0.000000 7.387352 22.689323 -10.676492 0.000000 0.000000 0.000000
